<mxfile host="app.diagrams.net" modified="2020-11-13T20:21:34.952Z" agent="5.0 (Windows NT 10.0; Win64; x64) AppleWebKit/537.36 (KHTML, like Gecko) Chrome/86.0.4240.77 YaBrowser/20.11.0.817 Yowser/2.5 Safari/537.36" etag="Kmt4xls0TnBHbaRxcKmR" version="13.9.7" type="github">
  <diagram id="VjE3jTMjFKAl3bEIiaHP" name="Page-1">
    <mxGraphModel dx="867" dy="541" grid="0" gridSize="10" guides="1" tooltips="1" connect="1" arrows="1" fold="1" page="1" pageScale="1" pageWidth="827" pageHeight="1169" math="0" shadow="0">
      <root>
        <mxCell id="0" />
        <mxCell id="1" parent="0" />
        <mxCell id="I7t4Smc2wLBkIIZpZpIB-14" style="edgeStyle=orthogonalEdgeStyle;orthogonalLoop=1;jettySize=auto;html=1;entryX=0;entryY=0.5;entryDx=0;entryDy=0;shadow=0;curved=1;endArrow=none;endFill=0;" parent="1" source="I7t4Smc2wLBkIIZpZpIB-1" target="I7t4Smc2wLBkIIZpZpIB-2" edge="1">
          <mxGeometry relative="1" as="geometry">
            <Array as="points">
              <mxPoint x="317" y="139" />
              <mxPoint x="317" y="139" />
            </Array>
          </mxGeometry>
        </mxCell>
        <mxCell id="I7t4Smc2wLBkIIZpZpIB-15" style="edgeStyle=orthogonalEdgeStyle;orthogonalLoop=1;jettySize=auto;html=1;entryX=1;entryY=0;entryDx=0;entryDy=0;shadow=0;curved=1;endArrow=none;endFill=0;" parent="1" source="I7t4Smc2wLBkIIZpZpIB-1" target="I7t4Smc2wLBkIIZpZpIB-7" edge="1">
          <mxGeometry relative="1" as="geometry">
            <Array as="points">
              <mxPoint x="167" y="149" />
              <mxPoint x="167" y="199" />
              <mxPoint x="161" y="199" />
            </Array>
          </mxGeometry>
        </mxCell>
        <mxCell id="I7t4Smc2wLBkIIZpZpIB-1" value="&lt;font style=&quot;font-size: 25px&quot;&gt;1&lt;/font&gt;" style="ellipse;whiteSpace=wrap;html=1;shadow=0;" parent="1" vertex="1">
          <mxGeometry x="187" y="129" width="40" height="40" as="geometry" />
        </mxCell>
        <mxCell id="I7t4Smc2wLBkIIZpZpIB-16" style="edgeStyle=orthogonalEdgeStyle;orthogonalLoop=1;jettySize=auto;html=1;entryX=1;entryY=0.5;entryDx=0;entryDy=0;shadow=0;curved=1;endArrow=none;endFill=0;" parent="1" source="I7t4Smc2wLBkIIZpZpIB-2" target="I7t4Smc2wLBkIIZpZpIB-3" edge="1">
          <mxGeometry relative="1" as="geometry">
            <Array as="points">
              <mxPoint x="347" y="59" />
            </Array>
          </mxGeometry>
        </mxCell>
        <mxCell id="I7t4Smc2wLBkIIZpZpIB-17" style="edgeStyle=orthogonalEdgeStyle;orthogonalLoop=1;jettySize=auto;html=1;entryX=0;entryY=0.5;entryDx=0;entryDy=0;shadow=0;curved=1;endArrow=none;endFill=0;" parent="1" source="I7t4Smc2wLBkIIZpZpIB-2" target="I7t4Smc2wLBkIIZpZpIB-4" edge="1">
          <mxGeometry relative="1" as="geometry">
            <Array as="points">
              <mxPoint x="357" y="109" />
            </Array>
          </mxGeometry>
        </mxCell>
        <mxCell id="I7t4Smc2wLBkIIZpZpIB-18" style="edgeStyle=orthogonalEdgeStyle;orthogonalLoop=1;jettySize=auto;html=1;entryX=0.5;entryY=0;entryDx=0;entryDy=0;shadow=0;curved=1;endArrow=none;endFill=0;" parent="1" source="I7t4Smc2wLBkIIZpZpIB-2" target="I7t4Smc2wLBkIIZpZpIB-8" edge="1">
          <mxGeometry relative="1" as="geometry">
            <Array as="points">
              <mxPoint x="357" y="179" />
              <mxPoint x="367" y="179" />
              <mxPoint x="367" y="259" />
              <mxPoint x="377" y="259" />
            </Array>
          </mxGeometry>
        </mxCell>
        <mxCell id="I7t4Smc2wLBkIIZpZpIB-2" value="&lt;font style=&quot;font-size: 25px&quot;&gt;2&lt;/font&gt;" style="ellipse;whiteSpace=wrap;html=1;shadow=0;" parent="1" vertex="1">
          <mxGeometry x="337" y="119" width="40" height="40" as="geometry" />
        </mxCell>
        <mxCell id="I7t4Smc2wLBkIIZpZpIB-19" style="edgeStyle=orthogonalEdgeStyle;orthogonalLoop=1;jettySize=auto;html=1;entryX=0.5;entryY=0;entryDx=0;entryDy=0;shadow=0;curved=1;endArrow=none;endFill=0;" parent="1" source="I7t4Smc2wLBkIIZpZpIB-3" target="I7t4Smc2wLBkIIZpZpIB-7" edge="1">
          <mxGeometry relative="1" as="geometry">
            <Array as="points">
              <mxPoint x="147" y="139" />
              <mxPoint x="147" y="139" />
            </Array>
          </mxGeometry>
        </mxCell>
        <mxCell id="I7t4Smc2wLBkIIZpZpIB-3" value="&lt;font style=&quot;font-size: 25px&quot;&gt;3&lt;/font&gt;" style="ellipse;whiteSpace=wrap;html=1;shadow=0;" parent="1" vertex="1">
          <mxGeometry x="137" y="39" width="40" height="40" as="geometry" />
        </mxCell>
        <mxCell id="wKyiMKoRvdkcPqBtKA78-6" style="edgeStyle=orthogonalEdgeStyle;curved=1;orthogonalLoop=1;jettySize=auto;html=1;exitX=0;exitY=1;exitDx=0;exitDy=0;entryX=0.5;entryY=0;entryDx=0;entryDy=0;shadow=0;endArrow=none;endFill=0;strokeColor=#000000;" edge="1" parent="1" source="I7t4Smc2wLBkIIZpZpIB-4" target="I7t4Smc2wLBkIIZpZpIB-6">
          <mxGeometry relative="1" as="geometry" />
        </mxCell>
        <mxCell id="wKyiMKoRvdkcPqBtKA78-7" style="edgeStyle=orthogonalEdgeStyle;curved=1;orthogonalLoop=1;jettySize=auto;html=1;exitX=1;exitY=0.5;exitDx=0;exitDy=0;entryX=1;entryY=0.5;entryDx=0;entryDy=0;shadow=0;endArrow=none;endFill=0;strokeColor=#000000;" edge="1" parent="1" source="I7t4Smc2wLBkIIZpZpIB-4" target="I7t4Smc2wLBkIIZpZpIB-12">
          <mxGeometry relative="1" as="geometry" />
        </mxCell>
        <mxCell id="wKyiMKoRvdkcPqBtKA78-8" style="edgeStyle=orthogonalEdgeStyle;curved=1;orthogonalLoop=1;jettySize=auto;html=1;exitX=0.5;exitY=1;exitDx=0;exitDy=0;entryX=1;entryY=0.5;entryDx=0;entryDy=0;shadow=0;endArrow=none;endFill=0;strokeColor=#000000;" edge="1" parent="1" source="I7t4Smc2wLBkIIZpZpIB-4" target="I7t4Smc2wLBkIIZpZpIB-7">
          <mxGeometry relative="1" as="geometry" />
        </mxCell>
        <mxCell id="I7t4Smc2wLBkIIZpZpIB-4" value="&lt;font style=&quot;font-size: 25px&quot;&gt;4&lt;/font&gt;" style="ellipse;whiteSpace=wrap;html=1;shadow=0;" parent="1" vertex="1">
          <mxGeometry x="577" y="89" width="40" height="40" as="geometry" />
        </mxCell>
        <mxCell id="I7t4Smc2wLBkIIZpZpIB-23" style="edgeStyle=orthogonalEdgeStyle;orthogonalLoop=1;jettySize=auto;html=1;entryX=1;entryY=0.5;entryDx=0;entryDy=0;shadow=0;curved=1;exitX=0;exitY=0.5;exitDx=0;exitDy=0;endArrow=none;endFill=0;" parent="1" source="I7t4Smc2wLBkIIZpZpIB-6" target="I7t4Smc2wLBkIIZpZpIB-8" edge="1">
          <mxGeometry relative="1" as="geometry">
            <Array as="points">
              <mxPoint x="411" y="161" />
              <mxPoint x="411" y="309" />
            </Array>
          </mxGeometry>
        </mxCell>
        <mxCell id="I7t4Smc2wLBkIIZpZpIB-6" value="&lt;font style=&quot;font-size: 25px&quot;&gt;5&lt;/font&gt;" style="ellipse;whiteSpace=wrap;html=1;shadow=0;" parent="1" vertex="1">
          <mxGeometry x="441" y="141" width="40" height="40" as="geometry" />
        </mxCell>
        <mxCell id="wKyiMKoRvdkcPqBtKA78-3" style="edgeStyle=orthogonalEdgeStyle;curved=1;orthogonalLoop=1;jettySize=auto;html=1;exitX=1;exitY=1;exitDx=0;exitDy=0;entryX=0.5;entryY=0;entryDx=0;entryDy=0;shadow=0;endArrow=none;endFill=0;strokeColor=#000000;" edge="1" parent="1" source="I7t4Smc2wLBkIIZpZpIB-7" target="I7t4Smc2wLBkIIZpZpIB-9">
          <mxGeometry relative="1" as="geometry" />
        </mxCell>
        <mxCell id="wKyiMKoRvdkcPqBtKA78-4" style="edgeStyle=orthogonalEdgeStyle;curved=1;orthogonalLoop=1;jettySize=auto;html=1;exitX=0;exitY=0.5;exitDx=0;exitDy=0;entryX=0.5;entryY=0;entryDx=0;entryDy=0;shadow=0;endArrow=none;endFill=0;strokeColor=#000000;" edge="1" parent="1" source="I7t4Smc2wLBkIIZpZpIB-7" target="I7t4Smc2wLBkIIZpZpIB-11">
          <mxGeometry relative="1" as="geometry" />
        </mxCell>
        <mxCell id="I7t4Smc2wLBkIIZpZpIB-7" value="&lt;font style=&quot;font-size: 25px&quot;&gt;6&lt;/font&gt;" style="ellipse;whiteSpace=wrap;html=1;shadow=0;" parent="1" vertex="1">
          <mxGeometry x="127" y="209" width="40" height="40" as="geometry" />
        </mxCell>
        <mxCell id="I7t4Smc2wLBkIIZpZpIB-26" style="edgeStyle=orthogonalEdgeStyle;curved=1;orthogonalLoop=1;jettySize=auto;html=1;entryX=1;entryY=0.5;entryDx=0;entryDy=0;shadow=0;endArrow=none;endFill=0;" parent="1" source="I7t4Smc2wLBkIIZpZpIB-8" target="I7t4Smc2wLBkIIZpZpIB-10" edge="1">
          <mxGeometry relative="1" as="geometry" />
        </mxCell>
        <mxCell id="wKyiMKoRvdkcPqBtKA78-5" style="edgeStyle=orthogonalEdgeStyle;curved=1;orthogonalLoop=1;jettySize=auto;html=1;exitX=1;exitY=1;exitDx=0;exitDy=0;entryX=0;entryY=0.5;entryDx=0;entryDy=0;shadow=0;endArrow=none;endFill=0;strokeColor=#000000;" edge="1" parent="1" source="I7t4Smc2wLBkIIZpZpIB-8" target="I7t4Smc2wLBkIIZpZpIB-12">
          <mxGeometry relative="1" as="geometry" />
        </mxCell>
        <mxCell id="I7t4Smc2wLBkIIZpZpIB-8" value="&lt;font style=&quot;font-size: 25px&quot;&gt;7&lt;/font&gt;" style="ellipse;whiteSpace=wrap;html=1;shadow=0;" parent="1" vertex="1">
          <mxGeometry x="357" y="289" width="40" height="40" as="geometry" />
        </mxCell>
        <mxCell id="I7t4Smc2wLBkIIZpZpIB-28" style="edgeStyle=orthogonalEdgeStyle;curved=1;orthogonalLoop=1;jettySize=auto;html=1;entryX=0.5;entryY=0;entryDx=0;entryDy=0;shadow=0;endArrow=none;endFill=0;" parent="1" source="I7t4Smc2wLBkIIZpZpIB-9" target="I7t4Smc2wLBkIIZpZpIB-10" edge="1">
          <mxGeometry relative="1" as="geometry" />
        </mxCell>
        <mxCell id="I7t4Smc2wLBkIIZpZpIB-9" value="&lt;font style=&quot;font-size: 25px&quot;&gt;8&lt;/font&gt;" style="ellipse;whiteSpace=wrap;html=1;shadow=0;" parent="1" vertex="1">
          <mxGeometry x="147" y="289" width="40" height="40" as="geometry" />
        </mxCell>
        <mxCell id="I7t4Smc2wLBkIIZpZpIB-29" style="edgeStyle=orthogonalEdgeStyle;curved=1;orthogonalLoop=1;jettySize=auto;html=1;entryX=0.5;entryY=1;entryDx=0;entryDy=0;shadow=0;endArrow=none;endFill=0;" parent="1" source="I7t4Smc2wLBkIIZpZpIB-10" target="I7t4Smc2wLBkIIZpZpIB-11" edge="1">
          <mxGeometry relative="1" as="geometry" />
        </mxCell>
        <mxCell id="I7t4Smc2wLBkIIZpZpIB-10" value="&lt;font style=&quot;font-size: 25px&quot;&gt;9&lt;/font&gt;" style="ellipse;whiteSpace=wrap;html=1;shadow=0;" parent="1" vertex="1">
          <mxGeometry x="147" y="439" width="40" height="40" as="geometry" />
        </mxCell>
        <mxCell id="I7t4Smc2wLBkIIZpZpIB-11" value="&lt;font style=&quot;font-size: 25px&quot;&gt;10&lt;/font&gt;" style="ellipse;whiteSpace=wrap;html=1;shadow=0;" parent="1" vertex="1">
          <mxGeometry x="57" y="359" width="40" height="40" as="geometry" />
        </mxCell>
        <mxCell id="I7t4Smc2wLBkIIZpZpIB-12" value="&lt;font style=&quot;font-size: 25px&quot;&gt;11&lt;/font&gt;" style="ellipse;whiteSpace=wrap;html=1;shadow=0;" parent="1" vertex="1">
          <mxGeometry x="497" y="339" width="40" height="40" as="geometry" />
        </mxCell>
      </root>
    </mxGraphModel>
  </diagram>
</mxfile>
